<?xml version="1.0" encoding="UTF-8" standalone="no"?>
<svg
   xmlns:dc="http://purl.org/dc/elements/1.1/"
   xmlns:cc="http://creativecommons.org/ns#"
   xmlns:rdf="http://www.w3.org/1999/02/22-rdf-syntax-ns#"
   xmlns:svg="http://www.w3.org/2000/svg"
   xmlns="http://www.w3.org/2000/svg"
   xmlns:sodipodi="http://sodipodi.sourceforge.net/DTD/sodipodi-0.dtd"
   xmlns:inkscape="http://www.inkscape.org/namespaces/inkscape"
   width="70"
   height="70"
   viewBox="0 0 70 70.000002"
   id="svg5168"
   version="1.1"
   inkscape:version="1.0 (1.0+r73)"
   sodipodi:docname="gear.svg"
   inkscape:export-filename="/home/lliurex/Desarrollo/Javapanel-qt/rsrc/cpanel.png"
   inkscape:export-xdpi="96"
   inkscape:export-ydpi="96">
  <defs
     id="defs5170">
    <linearGradient
       id="a"
       x1="70.786003"
       y1="12.393"
       x2="6.447"
       y2="74.468002"
       gradientUnits="userSpaceOnUse"
       gradientTransform="translate(3.7,-0.0040855)">
      <stop
         offset=".048"
         stop-color="#fff44f"
         id="stop834" />
      <stop
         offset=".111"
         stop-color="#ffe847"
         id="stop836" />
      <stop
         offset=".225"
         stop-color="#ffc830"
         id="stop838" />
      <stop
         offset=".368"
         stop-color="#ff980e"
         id="stop840" />
      <stop
         offset=".401"
         stop-color="#ff8b16"
         id="stop842" />
      <stop
         offset=".462"
         stop-color="#ff672a"
         id="stop844" />
      <stop
         offset=".534"
         stop-color="#ff3647"
         id="stop846" />
      <stop
         offset=".705"
         stop-color="#e31587"
         id="stop848" />
    </linearGradient>
    <radialGradient
       id="b"
       cx="-7907.187"
       cy="-8515.1211"
       r="80.796997"
       gradientTransform="translate(7978.7,8523.9959)"
       gradientUnits="userSpaceOnUse">
      <stop
         offset=".129"
         stop-color="#ffbd4f"
         id="stop851" />
      <stop
         offset=".186"
         stop-color="#ffac31"
         id="stop853" />
      <stop
         offset=".247"
         stop-color="#ff9d17"
         id="stop855" />
      <stop
         offset=".283"
         stop-color="#ff980e"
         id="stop857" />
      <stop
         offset=".403"
         stop-color="#ff563b"
         id="stop859" />
      <stop
         offset=".467"
         stop-color="#ff3750"
         id="stop861" />
      <stop
         offset=".71"
         stop-color="#f5156c"
         id="stop863" />
      <stop
         offset=".782"
         stop-color="#eb0878"
         id="stop865" />
      <stop
         offset=".86"
         stop-color="#e50080"
         id="stop867" />
    </radialGradient>
    <radialGradient
       id="c"
       cx="-7936.7109"
       cy="-8482.0889"
       r="80.796997"
       gradientTransform="translate(7978.7,8523.9959)"
       gradientUnits="userSpaceOnUse">
      <stop
         offset=".3"
         stop-color="#960e18"
         id="stop870" />
      <stop
         offset=".351"
         stop-color="#b11927"
         stop-opacity=".74"
         id="stop872" />
      <stop
         offset=".435"
         stop-color="#db293d"
         stop-opacity=".343"
         id="stop874" />
      <stop
         offset=".497"
         stop-color="#f5334b"
         stop-opacity=".094"
         id="stop876" />
      <stop
         offset=".53"
         stop-color="#ff3750"
         stop-opacity="0"
         id="stop878" />
    </radialGradient>
    <radialGradient
       id="d"
       cx="-7926.9702"
       cy="-8533.457"
       r="58.534"
       gradientTransform="translate(7978.7,8523.9959)"
       gradientUnits="userSpaceOnUse">
      <stop
         offset=".132"
         stop-color="#fff44f"
         id="stop881" />
      <stop
         offset=".252"
         stop-color="#ffdc3e"
         id="stop883" />
      <stop
         offset=".506"
         stop-color="#ff9d12"
         id="stop885" />
      <stop
         offset=".526"
         stop-color="#ff980e"
         id="stop887" />
    </radialGradient>
    <radialGradient
       id="e"
       cx="-7945.6479"
       cy="-8460.9844"
       r="38.471001"
       gradientTransform="translate(7978.7,8523.9959)"
       gradientUnits="userSpaceOnUse">
      <stop
         offset=".353"
         stop-color="#3a8ee6"
         id="stop890" />
      <stop
         offset=".472"
         stop-color="#5c79f0"
         id="stop892" />
      <stop
         offset=".669"
         stop-color="#9059ff"
         id="stop894" />
      <stop
         offset="1"
         stop-color="#c139e6"
         id="stop896" />
    </radialGradient>
    <radialGradient
       id="f"
       cx="-7935.6201"
       cy="-8491.5459"
       r="20.396999"
       gradientTransform="matrix(0.972,-0.235,0.275,1.138,10095.002,7833.7939)"
       gradientUnits="userSpaceOnUse">
      <stop
         offset=".206"
         stop-color="#9059ff"
         stop-opacity="0"
         id="stop899" />
      <stop
         offset=".278"
         stop-color="#8c4ff3"
         stop-opacity=".064"
         id="stop901" />
      <stop
         offset=".747"
         stop-color="#7716a8"
         stop-opacity=".45"
         id="stop903" />
      <stop
         offset=".975"
         stop-color="#6e008b"
         stop-opacity=".6"
         id="stop905" />
    </radialGradient>
    <radialGradient
       id="g"
       cx="-7937.731"
       cy="-8518.4268"
       r="27.676001"
       gradientTransform="translate(7978.7,8523.9959)"
       gradientUnits="userSpaceOnUse">
      <stop
         offset="0"
         stop-color="#ffe226"
         id="stop908" />
      <stop
         offset=".121"
         stop-color="#ffdb27"
         id="stop910" />
      <stop
         offset=".295"
         stop-color="#ffc82a"
         id="stop912" />
      <stop
         offset=".502"
         stop-color="#ffa930"
         id="stop914" />
      <stop
         offset=".732"
         stop-color="#ff7e37"
         id="stop916" />
      <stop
         offset=".792"
         stop-color="#ff7139"
         id="stop918" />
    </radialGradient>
    <radialGradient
       id="h"
       cx="-7915.9771"
       cy="-8535.9814"
       r="118.081"
       gradientTransform="translate(7978.7,8523.9959)"
       gradientUnits="userSpaceOnUse">
      <stop
         offset=".113"
         stop-color="#fff44f"
         id="stop921" />
      <stop
         offset=".456"
         stop-color="#ff980e"
         id="stop923" />
      <stop
         offset=".622"
         stop-color="#ff5634"
         id="stop925" />
      <stop
         offset=".716"
         stop-color="#ff3647"
         id="stop927" />
      <stop
         offset=".904"
         stop-color="#e31587"
         id="stop929" />
    </radialGradient>
    <radialGradient
       id="i"
       cx="-7927.165"
       cy="-8522.8594"
       r="86.499001"
       gradientTransform="matrix(0.105,0.995,-0.653,0.069,-4680.304,8470.1869)"
       gradientUnits="userSpaceOnUse">
      <stop
         offset="0"
         stop-color="#fff44f"
         id="stop932" />
      <stop
         offset=".06"
         stop-color="#ffe847"
         id="stop934" />
      <stop
         offset=".168"
         stop-color="#ffc830"
         id="stop936" />
      <stop
         offset=".304"
         stop-color="#ff980e"
         id="stop938" />
      <stop
         offset=".356"
         stop-color="#ff8b16"
         id="stop940" />
      <stop
         offset=".455"
         stop-color="#ff672a"
         id="stop942" />
      <stop
         offset=".57"
         stop-color="#ff3647"
         id="stop944" />
      <stop
         offset=".737"
         stop-color="#e31587"
         id="stop946" />
    </radialGradient>
    <radialGradient
       id="j"
       cx="-7938.3828"
       cy="-8508.1758"
       r="73.720001"
       gradientTransform="translate(7978.7,8523.9959)"
       gradientUnits="userSpaceOnUse">
      <stop
         offset=".137"
         stop-color="#fff44f"
         id="stop949" />
      <stop
         offset=".48"
         stop-color="#ff980e"
         id="stop951" />
      <stop
         offset=".592"
         stop-color="#ff5634"
         id="stop953" />
      <stop
         offset=".655"
         stop-color="#ff3647"
         id="stop955" />
      <stop
         offset=".904"
         stop-color="#e31587"
         id="stop957" />
    </radialGradient>
    <radialGradient
       id="k"
       cx="-7918.9229"
       cy="-8503.8613"
       r="80.685997"
       gradientTransform="translate(7978.7,8523.9959)"
       gradientUnits="userSpaceOnUse">
      <stop
         offset=".094"
         stop-color="#fff44f"
         id="stop960" />
      <stop
         offset=".231"
         stop-color="#ffe141"
         id="stop962" />
      <stop
         offset=".509"
         stop-color="#ffaf1e"
         id="stop964" />
      <stop
         offset=".626"
         stop-color="#ff980e"
         id="stop966" />
    </radialGradient>
    <linearGradient
       id="l"
       x1="70.013"
       y1="12.061"
       x2="15.267"
       y2="66.806"
       gradientUnits="userSpaceOnUse"
       gradientTransform="translate(3.7,-0.0040855)">
      <stop
         offset=".167"
         stop-color="#fff44f"
         stop-opacity=".8"
         id="stop969" />
      <stop
         offset=".266"
         stop-color="#fff44f"
         stop-opacity=".634"
         id="stop971" />
      <stop
         offset=".489"
         stop-color="#fff44f"
         stop-opacity=".217"
         id="stop973" />
      <stop
         offset=".6"
         stop-color="#fff44f"
         stop-opacity="0"
         id="stop975" />
    </linearGradient>
  </defs>
  <sodipodi:namedview
     id="base"
     pagecolor="#ffffff"
     bordercolor="#666666"
     borderopacity="1.0"
     inkscape:pageopacity="0.0"
     inkscape:pageshadow="2"
     inkscape:zoom="3.959798"
     inkscape:cx="57.537696"
     inkscape:cy="30.261365"
     inkscape:document-units="px"
     inkscape:current-layer="layer1"
     showgrid="false"
     units="px"
     inkscape:window-width="1920"
     inkscape:window-height="897"
     inkscape:window-x="0"
     inkscape:window-y="36"
     inkscape:window-maximized="1"
     inkscape:document-rotation="0" />
  <metadata
     id="metadata5173">
    <rdf:RDF>
      <cc:Work
         rdf:about="">
        <dc:format>image/svg+xml</dc:format>
        <dc:type
           rdf:resource="http://purl.org/dc/dcmitype/StillImage" />
        <dc:title />
      </cc:Work>
    </rdf:RDF>
  </metadata>
  <g
     inkscape:label="Capa 1"
     inkscape:groupmode="layer"
     id="layer1"
     transform="translate(0,-1006.3622)">
    <path
       style="fill:#666666;fill-opacity:1;stroke:none;stroke-width:1.30438"
       d="m 33.99674,1011.3622 -1.13762,2.7958 -0.20285,1.4782 0.11583,1.2677 -3.21098,0.509 -0.28225,-1.2419 -0.64966,-1.3433 -1.94612,-2.3078 -1.90784,0.62 -0.21815,3.011 0.26407,1.4687 0.50135,1.1703 -2.89621,1.4753 -0.65157,-1.0937 -1.03333,-1.0763 -2.56421,-1.5931 -1.62272,1.1787 0.72334,2.9316 0.70516,1.3147 0.83814,0.9577 -2.2982,2.2983 -0.95775,-0.8382 -1.3156,-0.7051 -2.93066,-0.7224 -1.17876,1.6226 1.59306,2.5644 1.07638,1.0322 1.09362,0.6517 -1.47633,2.8971 -1.16919,-0.5023 -1.46869,-0.264 -3.01102,0.219 -0.62,1.907 2.30778,1.9471 1.34334,0.6486 1.24095,0.2823 -0.50805,3.2109 -1.26775,-0.1161 -1.47825,0.2028 -2.7967,1.139 v 2.0054 l 2.79671,1.1375 1.47824,0.2028 1.26775,-0.1161 0.50805,3.2109 -1.24095,0.2823 -1.34334,0.6497 -2.30778,1.9462 0.62001,1.9077 3.01102,0.2182 1.46868,-0.2641 1.1692,-0.5013 1.47633,2.8962 -1.09361,0.6516 -1.0764,1.0333 -1.59306,2.5642 1.17878,1.6228 2.93064,-0.7234 1.3156,-0.7052 0.95775,-0.838 2.2982,2.299 -0.83814,0.9579 -0.70516,1.3145 -0.72334,2.9307 1.62272,1.1798 2.56421,-1.5931 1.03334,-1.0774 0.65158,-1.0935 2.89621,1.4762 -0.50137,1.1693 -0.26407,1.4686 0.21815,3.0111 1.90784,0.62 1.94612,-2.3078 0.64966,-1.3434 0.28225,-1.2409 3.211,0.508 -0.11583,1.2678 0.20284,1.4782 1.13763,2.7968 h 2.00542 l 1.1386,-2.7968 0.20282,-1.4782 -0.1157,-1.2678 3.211,-0.508 0.28224,1.2409 0.6487,1.3434 1.94709,2.3078 1.90689,-0.62 0.21911,-3.0111 -0.26409,-1.4686 -0.50232,-1.1693 2.89717,-1.4762 0.65156,1.0935 1.03239,1.0774 2.56517,1.5931 1.62177,-1.1798 -0.72239,-2.9307 -0.70514,-1.3145 -0.83817,-0.9579 2.29822,-2.299 0.95775,0.838 1.31557,0.7052 2.93069,0.7234 1.17875,-1.6228 -1.59304,-2.5642 -1.07639,-1.0333 -1.09363,-0.6516 1.47536,-2.8962 1.17017,0.5013 1.46868,0.2641 3.01103,-0.2182 0.62,-1.9077 -2.3078,-1.9462 -1.34335,-0.6497 -1.24093,-0.2823 0.50806,-3.2109 1.26773,0.1161 1.47827,-0.2028 2.79668,-1.1375 v -2.0054 l -2.79668,-1.1387 -1.47827,-0.2028 -1.26773,0.1161 -0.50806,-3.2109 1.24093,-0.2823 1.34335,-0.6486 2.3078,-1.9471 -0.62,-1.907 -3.01103,-0.219 -1.46868,0.264 -1.17017,0.5023 -1.47536,-2.8972 1.09363,-0.6516 1.07639,-1.0323 1.59304,-2.5643 -1.17875,-1.6226 -2.93069,0.7223 -1.31557,0.7052 -0.95775,0.8381 -2.29822,-2.2982 0.83817,-0.9578 0.70514,-1.3146 0.72239,-2.9316 -1.62177,-1.1788 -2.56517,1.5931 -1.03239,1.0764 -0.65156,1.0937 -2.89717,-1.4754 0.50232,-1.1702 0.26409,-1.4687 -0.21911,-3.011 -1.90689,-0.62 -1.94709,2.3077 -0.6487,1.3434 -0.28224,1.2419 -3.211,-0.509 0.1157,-1.2677 -0.20282,-1.4782 -1.1386,-2.7958 h -2.00542 z m 1.00273,15.3039 a 14.696333,14.696333 0 0 1 14.69632,14.6964 14.696333,14.696333 0 0 1 -14.69632,14.6962 14.696333,14.696333 0 0 1 -14.69633,-14.6962 14.696333,14.696333 0 0 1 14.69633,-14.6964 z"
       id="path73670"
       inkscape:connector-curvature="0" />
    <path
       style="opacity:1;fill:#333333;fill-opacity:1;stroke:none;stroke-width:6.52174;stroke-miterlimit:4;stroke-dasharray:none;stroke-opacity:1"
       d="m 113.62586,955.09302 c -0.18846,0 0.82375,1.216 2.24952,2.7022 5.32687,5.5528 8.42821,11.8032 8.96208,18.0618 l 0.22675,2.6553 -0.75844,-2.0015 c -1.15193,-3.0406 -2.22803,-4.9846 -4.24412,-7.6666 -1.81273,-2.4115 -4.49809,-4.8245 -4.9103,-4.4122 -0.11687,0.1174 0.32052,0.9908 0.97267,1.9422 2.60209,3.7955 4.15119,7.8183 4.70466,12.2195 0.14411,1.1458 0.14399,2.2738 0,2.5066 -0.14729,0.2384 -0.95168,-0.4974 -1.83979,-1.6825 -1.46614,-1.9565 -4.10286,-4.3083 -4.83057,-4.3083 -0.17312,0 0.0721,0.8558 0.54499,1.9015 0.68708,1.5197 0.86448,2.7072 0.8859,5.9121 0.0251,3.7526 -0.0578,4.1819 -1.29092,6.6883 -1.50712,3.0629 -3.63262,5.1163 -6.8885,6.6539 -1.79179,0.846 -2.80246,1.0416 -5.42558,1.0507 -2.921351,0.015 -3.502829,-0.1265 -6.205138,-1.465 -1.639943,-0.8123 -3.690757,-2.2059 -4.557678,-3.0965 l -1.576304,-1.6192 1.373022,0.394 c 0.75536,0.2168 2.296917,0.394 3.42549,0.394 2.188932,0 8.350408,-0.9614 10.398428,-1.6223 3.10459,-1.0017 3.88768,-3.5248 1.75537,-5.6571 -1.45556,-1.4555 -2.1212,-1.4129 -7.341223,0.4675 -4.453735,1.6046 -5.492335,1.4602 -8.341279,-1.1594 l -2.103313,-1.9344 1.41133,-1.4114 c 1.379897,-1.3799 3.573849,-2.283 5.577275,-2.2965 0.984991,-0.014 0.979747,-0.023 -0.329166,-1.0547 l -1.330017,-1.0477 1.730322,-0.975 c 3.058891,-1.7232 7.084661,-6.3116 6.260651,-7.1356 -0.0998,-0.1004 -0.88328,0.176 -1.7405,0.6129 -0.857203,0.4371 -2.195986,0.7906 -2.975112,0.7859 -1.608991,-0.015 -4.818835,-1.333 -4.818835,-1.986 0,-0.8374 1.248209,-3.4083 2.090009,-4.3043 l 0.851491,-0.9064 H 94.62655 c -0.501808,0 -1.808335,0.4498 -2.903948,1.0001 -1.635078,0.8214 -2.363322,0.9604 -4.061947,0.7756 -1.957697,-0.2129 -4.772949,0.1539 -6.415462,0.836 -0.677257,0.2812 -0.730539,0.1265 -0.600495,-1.7523 0.07852,-1.1337 0.02283,-2.0612 -0.123522,-2.061 -0.54,0 -3.663379,3.8823 -5.155044,6.406 -2.51936,4.2626 -3.659648,8.2638 -3.891508,13.655 -0.243105,5.6523 0.47773,9.4569 2.685822,14.1681 4.09766,8.74268 11.450478,14.63018 21.039261,16.84668 3.569335,0.825 11.227153,0.4992 14.812243,-0.6303 8.42688,-2.6547 14.94151,-8.3246 18.63336,-16.21638 1.93418,-4.1346 2.78433,-8.0308 2.78433,-12.7655 0,-8.2433 -2.90377,-15.2246 -8.77443,-21.0963 -2.60169,-2.6018 -7.94409,-6.3715 -9.02933,-6.3715 z"
       id="rect77137"
       inkscape:connector-curvature="0"
       sodipodi:nodetypes="sscccscssssssssscscccssssccscccccsssccssscscsssssssss" />
    <g
       id="g77148"
       transform="matrix(1.5894911,0,0,1.5894911,-531.2333,-527.77669)"
       style="fill:#ff0000;fill-opacity:1">
      <path
         inkscape:connector-curvature="0"
         style="fill:#ff0000;fill-opacity:1"
         d="m 288.04562,960.97182 c 0,0 -1.44346,0.83887 1.02725,1.12273 2.9932,0.34125 4.52299,0.29231 7.82152,-0.33158 0,0 0.86722,0.54341 2.07834,1.01408 -7.39443,3.16705 -16.73504,-0.18345 -10.92711,-1.80523"
         id="path4185-7-7-2-3" />
      <path
         inkscape:connector-curvature="0"
         style="fill:#ff0000;fill-opacity:1"
         d="m 287.14206,956.83903 c 0,0 -1.61898,1.19761 0.85357,1.45319 3.19743,0.32965 5.72251,0.35661 10.09187,-0.48419 0,0 0.60434,0.61229 1.55463,0.94712 -8.9403,2.61255 -18.89819,0.20603 -12.50007,-1.91612"
         id="path4187-0-5-4-3" />
      <path
         inkscape:connector-curvature="0"
         style="fill:#ff0000;fill-opacity:1"
         d="m 294.75934,949.82844 c 1.82199,2.09631 -0.4787,3.98272 -0.4787,3.98272 0,0 4.62632,-2.38668 2.50166,-5.37537 -1.98437,-2.78715 -3.50612,-4.17197 4.732,-8.94666 0,0 -12.93113,3.22749 -6.75496,10.33931"
         id="path4189-8-4-7-6" />
      <path
         inkscape:connector-curvature="0"
         style="fill:#ff0000;fill-opacity:1"
         d="m 304.53907,964.02869 c 0,0 1.06818,0.87956 -1.17641,1.56002 -4.26816,1.29213 -17.76455,1.68231 -21.51378,0.0515 -1.34776,-0.58594 1.17966,-1.39907 1.97469,-1.56969 0.82914,-0.17968 1.30296,-0.1462 1.30296,-0.1462 -1.49884,-1.05518 -9.68789,2.07189 -4.15963,2.96743 15.07636,2.44335 27.48277,-1.10025 23.57217,-2.86304"
         id="path4191-3-1-3-8" />
      <path
         inkscape:connector-curvature="0"
         style="fill:#ff0000;fill-opacity:1"
         d="m 288.73975,952.55698 c 0,0 -6.86512,1.62951 -2.43111,2.22125 1.87218,0.25049 5.60431,0.19382 9.0807,-0.0973 2.8411,-0.2395 5.6939,-0.74872 5.6939,-0.74872 0,0 -1.0018,0.42874 -1.72658,0.92331 -6.97141,1.83229 -20.43888,0.97989 -16.56177,-0.89432 3.27888,-1.58393 5.94486,-1.40425 5.94486,-1.40425"
         id="path4193-0-4-4-5" />
      <path
         inkscape:connector-curvature="0"
         style="fill:#ff0000;fill-opacity:1"
         d="m 301.05494,959.43622 c 7.08676,-3.68014 3.81012,-7.21672 1.52307,-6.74026 -0.56056,0.1166 -0.8105,0.21763 -0.8105,0.21763 0,0 0.20809,-0.32578 0.60556,-0.4668 4.52452,-1.58963 8.00416,4.68841 -1.46056,7.17491 0,10e-5 0.10965,-0.0979 0.14243,-0.18548"
         id="path4195-9-3-4-1" />
      <path
         inkscape:connector-curvature="0"
         style="fill:#ff0000;fill-opacity:1"
         d="m 296.7823,931.77927 c 0,0 3.92476,3.9235 -3.72246,9.95675 -6.1323,4.8397 -1.39836,7.59917 -0.003,10.75198 -3.57952,-3.22749 -6.20641,-6.06866 -4.44409,-8.71295 2.58668,-3.88159 9.75264,-5.76353 8.1691,-11.99578"
         id="path4197-7-3-5-7" />
      <path
         inkscape:connector-curvature="0"
         style="fill:#ff0000;fill-opacity:1"
         d="m 289.43613,969.40854 c 6.8024,0.43515 17.24827,-0.24144 17.49566,-3.45803 0,0 -0.47555,1.21938 -5.62182,2.18777 -5.80599,1.0919 -12.96687,0.96442 -17.21406,0.26463 1.1e-4,-10e-5 0.86946,0.71912 5.34022,1.00563"
         id="path4199-8-4-8-6" />
    </g>
    <g
       id="g1982"
       transform="matrix(0.75030971,0,0,0.75030971,-94.767183,1043.6867)"
       inkscape:export-xdpi="90"
       inkscape:export-ydpi="90">
      <path
         style="fill:url(#a)"
         id="path980"
         d="m 79.616,26.826915 c -1.684,-4.052 -5.1,-8.427 -7.775,-9.81 a 40.266,40.266 0 0 1 3.925,11.764 l 0.007,0.065 c -4.382,-10.925 -11.813,-15.33 -17.882,-24.9220005 -0.307,-0.485 -0.614,-0.971 -0.913,-1.484 -0.171,-0.293 -0.308,-0.557 -0.427,-0.8 a 7.053,7.053 0 0 1 -0.578,-1.535 0.1,0.1 0 0 0 -0.088,-0.1 0.138,0.138 0 0 0 -0.073,0 c -0.005,0 -0.013,0.009 -0.019,0.011 -0.006,0.002 -0.019,0.011 -0.028,0.015 l 0.015,-0.026 c -9.735,5.7 -13.038,16.2520005 -13.342,21.5300005 a 19.387,19.387 0 0 0 -10.666,4.111 11.587,11.587 0 0 0 -1,-0.758 17.968,17.968 0 0 1 -0.109,-9.473 28.705,28.705 0 0 0 -9.329,7.21 h -0.018 c -1.536,-1.947 -1.428,-8.367 -1.34,-9.708 a 6.928,6.928 0 0 0 -1.294,0.687 28.225,28.225 0 0 0 -3.788,3.245 33.845,33.845 0 0 0 -3.623,4.347 v 0.006 -0.007 a 32.733,32.733 0 0 0 -5.2,11.743 l -0.052,0.256 c -0.073,0.341 -0.336,2.049 -0.381,2.42 0,0.029 -0.006,0.056 -0.009,0.085 A 36.937,36.937 0 0 0 5,41.041915 v 0.2 a 38.759,38.759 0 0 0 76.954,6.554 c 0.065,-0.5 0.118,-0.995 0.176,-1.5 a 39.857,39.857 0 0 0 -2.514,-19.469 z m -44.67,30.338 c 0.181,0.087 0.351,0.181 0.537,0.264 l 0.027,0.017 q -0.282,-0.135 -0.564,-0.281 z m 8.878,-23.376 z m 31.952,-4.934 v -0.037 l 0.007,0.041 z" />
      <path
         style="fill:url(#b)"
         id="path982"
         d="m 79.616,26.826915 c -1.684,-4.052 -5.1,-8.427 -7.775,-9.81 a 40.266,40.266 0 0 1 3.925,11.764 v 0.037 l 0.007,0.041 a 35.1,35.1 0 0 1 -1.206,26.158 c -4.442,9.531 -15.194,19.3 -32.024,18.825 -18.185,-0.515 -34.2,-14.009 -37.194,-31.683 -0.545,-2.787 0,-4.2 0.274,-6.465 A 28.876,28.876 0 0 0 5,41.041915 v 0.2 a 38.759,38.759 0 0 0 76.954,6.554 c 0.065,-0.5 0.118,-0.995 0.176,-1.5 a 39.857,39.857 0 0 0 -2.514,-19.469 z" />
      <path
         style="fill:url(#c)"
         id="path984"
         d="m 79.616,26.826915 c -1.684,-4.052 -5.1,-8.427 -7.775,-9.81 a 40.266,40.266 0 0 1 3.925,11.764 v 0.037 l 0.007,0.041 a 35.1,35.1 0 0 1 -1.206,26.158 c -4.442,9.531 -15.194,19.3 -32.024,18.825 -18.185,-0.515 -34.2,-14.009 -37.194,-31.683 -0.545,-2.787 0,-4.2 0.274,-6.465 A 28.876,28.876 0 0 0 5,41.041915 v 0.2 a 38.759,38.759 0 0 0 76.954,6.554 c 0.065,-0.5 0.118,-0.995 0.176,-1.5 a 39.857,39.857 0 0 0 -2.514,-19.469 z" />
      <path
         style="fill:url(#d)"
         id="path986"
         d="m 60.782,31.382915 c 0.084,0.059 0.162,0.118 0.241,0.177 a 21.1,21.1 0 0 0 -3.6,-4.695 C 45.377,14.816915 54.266,0.7419145 55.765,0.0269145 l 0.015,-0.022 c -9.735,5.7 -13.038,16.2520005 -13.342,21.5300005 0.452,-0.031 0.9,-0.069 1.362,-0.069 a 19.56,19.56 0 0 1 16.982,9.917 z" />
      <path
         style="fill:url(#e)"
         id="path988"
         d="m 43.825,33.788915 c -0.064,0.964 -3.47,4.289 -4.661,4.289 -11.021,0 -12.81,6.667 -12.81,6.667 0.488,5.614 4.4,10.238 9.129,12.684 0.216,0.112 0.435,0.213 0.654,0.312 q 0.569,0.252 1.138,0.466 a 17.235,17.235 0 0 0 5.043,0.973 c 19.317,0.906 23.059,-23.1 9.119,-30.066 a 13.38,13.38 0 0 1 9.345,2.269 19.56,19.56 0 0 0 -16.982,-9.917 c -0.46,0 -0.91,0.038 -1.362,0.069 a 19.387,19.387 0 0 0 -10.666,4.111 c 0.591,0.5 1.258,1.168 2.663,2.553 2.63,2.591 9.375,5.275 9.39,5.59 z" />
      <path
         style="fill:url(#f)"
         id="path990"
         d="m 43.825,33.788915 c -0.064,0.964 -3.47,4.289 -4.661,4.289 -11.021,0 -12.81,6.667 -12.81,6.667 0.488,5.614 4.4,10.238 9.129,12.684 0.216,0.112 0.435,0.213 0.654,0.312 q 0.569,0.252 1.138,0.466 a 17.235,17.235 0 0 0 5.043,0.973 c 19.317,0.906 23.059,-23.1 9.119,-30.066 a 13.38,13.38 0 0 1 9.345,2.269 19.56,19.56 0 0 0 -16.982,-9.917 c -0.46,0 -0.91,0.038 -1.362,0.069 a 19.387,19.387 0 0 0 -10.666,4.111 c 0.591,0.5 1.258,1.168 2.663,2.553 2.63,2.591 9.375,5.275 9.39,5.59 z" />
      <path
         style="fill:url(#g)"
         id="path992"
         d="m 29.965,24.356915 c 0.314,0.2 0.573,0.374 0.8,0.531 a 17.968,17.968 0 0 1 -0.109,-9.473 28.705,28.705 0 0 0 -9.329,7.21 c 0.189,-0.005 5.811,-0.106 8.638,1.732 z" />
      <path
         style="fill:url(#h)"
         id="path994"
         d="m 5.354,42.158915 c 2.991,17.674 19.009,31.168 37.194,31.683 16.83,0.476 27.582,-9.294 32.024,-18.825 a 35.1,35.1 0 0 0 1.206,-26.158 v -0.037 c 0,-0.029 -0.006,-0.046 0,-0.037 l 0.007,0.065 c 1.375,8.977 -3.191,17.674 -10.329,23.555 l -0.022,0.05 c -13.908,11.327 -27.218,6.834 -29.912,5 q -0.282,-0.135 -0.564,-0.281 c -8.109,-3.876 -11.459,-11.264 -10.741,-17.6 a 9.953,9.953 0 0 1 -9.181,-5.775 14.618,14.618 0 0 1 14.249,-0.572 19.3,19.3 0 0 0 14.552,0.572 c -0.015,-0.315 -6.76,-3 -9.39,-5.59 -1.405,-1.385 -2.072,-2.052 -2.663,-2.553 a 11.587,11.587 0 0 0 -1,-0.758 c -0.23,-0.157 -0.489,-0.327 -0.8,-0.531 -2.827,-1.838 -8.449,-1.737 -8.635,-1.732 h -0.018 c -1.536,-1.947 -1.428,-8.367 -1.34,-9.708 a 6.928,6.928 0 0 0 -1.294,0.687 28.225,28.225 0 0 0 -3.788,3.245 33.845,33.845 0 0 0 -3.638,4.337 v 0.006 -0.007 a 32.733,32.733 0 0 0 -5.2,11.743 c -0.019,0.079 -1.396,6.099 -0.717,9.221 z" />
      <path
         style="fill:url(#i)"
         id="path996"
         d="m 57.425,26.864915 a 21.1,21.1 0 0 1 3.6,4.7 c 0.213,0.161 0.412,0.321 0.581,0.476 8.787,8.1 4.183,19.55 3.84,20.365 7.138,-5.881 11.7,-14.578 10.329,-23.555 -4.384,-10.93 -11.815,-15.335 -17.884,-24.9270005 -0.307,-0.485 -0.614,-0.971 -0.913,-1.484 -0.171,-0.293 -0.308,-0.557 -0.427,-0.8 a 7.053,7.053 0 0 1 -0.578,-1.535 0.1,0.1 0 0 0 -0.088,-0.1 0.138,0.138 0 0 0 -0.073,0 c -0.005,0 -0.013,0.009 -0.019,0.011 -0.006,0.002 -0.019,0.011 -0.028,0.015 -1.499,0.711 -10.388,14.7860005 1.66,26.8340005 z" />
      <path
         style="fill:url(#j)"
         id="path998"
         d="m 61.6,32.035915 c -0.169,-0.155 -0.368,-0.315 -0.581,-0.476 -0.079,-0.059 -0.157,-0.118 -0.241,-0.177 a 13.38,13.38 0 0 0 -9.345,-2.269 c 13.94,6.97 10.2,30.972 -9.119,30.066 a 17.235,17.235 0 0 1 -5.043,-0.973 q -0.569,-0.213 -1.138,-0.466 c -0.219,-0.1 -0.438,-0.2 -0.654,-0.312 l 0.027,0.017 c 2.694,1.839 16,6.332 29.912,-5 l 0.022,-0.05 c 0.347,-0.81 4.951,-12.263 -3.84,-20.36 z" />
      <path
         style="fill:url(#k)"
         id="path1000"
         d="m 26.354,44.744915 c 0,0 1.789,-6.667 12.81,-6.667 1.191,0 4.6,-3.325 4.661,-4.289 a 19.3,19.3 0 0 1 -14.552,-0.572 14.618,14.618 0 0 0 -14.249,0.572 9.953,9.953 0 0 0 9.181,5.775 c -0.718,6.337 2.632,13.725 10.741,17.6 0.181,0.087 0.351,0.181 0.537,0.264 -4.733,-2.445 -8.641,-7.069 -9.129,-12.683 z" />
      <path
         style="fill:url(#l)"
         id="path1002"
         d="m 79.616,26.826915 c -1.684,-4.052 -5.1,-8.427 -7.775,-9.81 a 40.266,40.266 0 0 1 3.925,11.764 l 0.007,0.065 c -4.382,-10.925 -11.813,-15.33 -17.882,-24.9220005 -0.307,-0.485 -0.614,-0.971 -0.913,-1.484 -0.171,-0.293 -0.308,-0.557 -0.427,-0.8 a 7.053,7.053 0 0 1 -0.578,-1.535 0.1,0.1 0 0 0 -0.088,-0.1 0.138,0.138 0 0 0 -0.073,0 c -0.005,0 -0.013,0.009 -0.019,0.011 -0.006,0.002 -0.019,0.011 -0.028,0.015 l 0.015,-0.026 c -9.735,5.7 -13.038,16.2520005 -13.342,21.5300005 0.452,-0.031 0.9,-0.069 1.362,-0.069 a 19.56,19.56 0 0 1 16.982,9.917 13.38,13.38 0 0 0 -9.345,-2.269 c 13.94,6.97 10.2,30.972 -9.119,30.066 a 17.235,17.235 0 0 1 -5.043,-0.973 q -0.569,-0.213 -1.138,-0.466 c -0.219,-0.1 -0.438,-0.2 -0.654,-0.312 l 0.027,0.017 q -0.282,-0.135 -0.564,-0.281 c 0.181,0.087 0.351,0.181 0.537,0.264 -4.733,-2.446 -8.641,-7.07 -9.129,-12.684 0,0 1.789,-6.667 12.81,-6.667 1.191,0 4.6,-3.325 4.661,-4.289 -0.015,-0.315 -6.76,-3 -9.39,-5.59 -1.405,-1.385 -2.072,-2.052 -2.663,-2.553 a 11.587,11.587 0 0 0 -1,-0.758 17.968,17.968 0 0 1 -0.109,-9.473 28.705,28.705 0 0 0 -9.329,7.21 h -0.018 c -1.536,-1.947 -1.428,-8.367 -1.34,-9.708 a 6.928,6.928 0 0 0 -1.294,0.687 28.225,28.225 0 0 0 -3.788,3.245 33.845,33.845 0 0 0 -3.623,4.347 v 0.006 -0.007 a 32.733,32.733 0 0 0 -5.2,11.743 l -0.052,0.256 c -0.073,0.341 -0.4,2.073 -0.447,2.445 0,0.028 0,-0.029 0,0 A 45.094,45.094 0 0 0 5,41.041915 v 0.2 a 38.759,38.759 0 0 0 76.954,6.554 c 0.065,-0.5 0.118,-0.995 0.176,-1.5 a 39.857,39.857 0 0 0 -2.514,-19.469 z m -3.845,1.991 0.007,0.041 z" />
    </g>
  </g>
</svg>
