<?xml version="1.0" encoding="UTF-8" standalone="no"?>
<!-- Created with Inkscape (http://www.inkscape.org/) -->

<svg
   xmlns:dc="http://purl.org/dc/elements/1.1/"
   xmlns:cc="http://creativecommons.org/ns#"
   xmlns:rdf="http://www.w3.org/1999/02/22-rdf-syntax-ns#"
   xmlns:svg="http://www.w3.org/2000/svg"
   xmlns="http://www.w3.org/2000/svg"
   xmlns:sodipodi="http://sodipodi.sourceforge.net/DTD/sodipodi-0.dtd"
   xmlns:inkscape="http://www.inkscape.org/namespaces/inkscape"
   width="46"
   height="46"
   viewBox="0 0 46 46.000001"
   id="svg5168"
   version="1.1"
   inkscape:version="0.91 r13725"
   sodipodi:docname="gear.svg"
   inkscape:export-filename="/home/cless/python/awesome_tabs/firefox.png"
   inkscape:export-xdpi="90"
   inkscape:export-ydpi="90">
  <defs
     id="defs5170" />
  <sodipodi:namedview
     id="base"
     pagecolor="#ffffff"
     bordercolor="#666666"
     borderopacity="1.0"
     inkscape:pageopacity="0.0"
     inkscape:pageshadow="2"
     inkscape:zoom="2.8"
     inkscape:cx="70.772042"
     inkscape:cy="33.256595"
     inkscape:document-units="px"
     inkscape:current-layer="layer1"
     showgrid="false"
     units="px"
     inkscape:window-width="1920"
     inkscape:window-height="1028"
     inkscape:window-x="1920"
     inkscape:window-y="0"
     inkscape:window-maximized="1" />
  <metadata
     id="metadata5173">
    <rdf:RDF>
      <cc:Work
         rdf:about="">
        <dc:format>image/svg+xml</dc:format>
        <dc:type
           rdf:resource="http://purl.org/dc/dcmitype/StillImage" />
        <dc:title></dc:title>
      </cc:Work>
    </rdf:RDF>
  </metadata>
  <g
     inkscape:label="Capa 1"
     inkscape:groupmode="layer"
     id="layer1"
     transform="translate(0,-1006.3622)">
    <path
       style="fill:#c9d4e2;fill-opacity:1;stroke:none;stroke-width:1"
       d="m 147.94514,1022.0769 -0.87216,2.1434 -0.15551,1.1333 0.0888,0.9719 -2.4617,0.3902 -0.21639,-0.9521 -0.49806,-1.0299 -1.49199,-1.7692 -1.46265,0.4753 -0.16724,2.3084 0.20245,1.126 0.38436,0.8971 -2.22038,1.1311 -0.49953,-0.8385 -0.7922,-0.8252 -1.96585,-1.2213 -1.24406,0.9037 0.55455,2.2475 0.54061,1.0079 0.64256,0.7342 -1.76192,1.762 -0.73426,-0.6426 -1.0086,-0.5406 -2.24679,-0.5538 -0.9037,1.244 1.22132,1.9659 0.82521,0.7914 0.83842,0.4996 -1.13183,2.2211 -0.89636,-0.3851 -1.12597,-0.2024 -2.3084,0.1679 -0.47532,1.462 1.76926,1.4927 1.02987,0.4973 0.95138,0.2164 -0.3895,2.4617 -0.97192,-0.089 -1.1333,0.1555 -2.14409,0.8731 0,1.5375 2.1441,0.8721 1.13329,0.1555 0.97192,-0.089 0.3895,2.4617 -0.95138,0.2164 -1.02987,0.4981 -1.76926,1.492 0.47533,1.4626 2.3084,0.1673 1.12596,-0.2025 0.89637,-0.3843 1.13183,2.2203 -0.83842,0.4996 -0.82522,0.7922 -1.22132,1.9658 0.90371,1.2441 2.24678,-0.5546 1.0086,-0.5406 0.73426,-0.6425 1.76192,1.7626 -0.64256,0.7343 -0.54061,1.0078 -0.55455,2.2468 1.24406,0.9045 1.96585,-1.2213 0.79221,-0.826 0.49953,-0.8384 2.22038,1.1318 -0.38437,0.8964 -0.20245,1.1259 0.16724,2.3084 1.46265,0.4754 1.49199,-1.7693 0.49806,-1.0299 0.21639,-0.9514 2.46171,0.3895 -0.0888,0.972 0.15551,1.1333 0.87216,2.1441 1.53746,0 0.87291,-2.1441 0.15549,-1.1333 -0.0887,-0.972 2.46171,-0.3895 0.21638,0.9514 0.49733,1.0299 1.49273,1.7693 1.46192,-0.4754 0.16798,-2.3084 -0.20246,-1.1259 -0.38511,-0.8964 2.22112,-1.1318 0.49952,0.8384 0.79148,0.826 1.96659,1.2213 1.24333,-0.9045 -0.55382,-2.2468 -0.5406,-1.0078 -0.64258,-0.7343 1.76193,-1.7626 0.73426,0.6425 1.00858,0.5406 2.24681,0.5546 0.90369,-1.2441 -1.2213,-1.9658 -0.82522,-0.7922 -0.83843,-0.4996 1.13109,-2.2203 0.89711,0.3843 1.12596,0.2025 2.30841,-0.1673 0.47532,-1.4626 -1.76927,-1.492 -1.02988,-0.4981 -0.95136,-0.2164 0.3895,-2.4617 0.97191,0.089 1.13331,-0.1555 2.14408,-0.8721 0,-1.5375 -2.14408,-0.8729 -1.13331,-0.1555 -0.97191,0.089 -0.3895,-2.4617 0.95136,-0.2164 1.02988,-0.4973 1.76927,-1.4927 -0.47532,-1.462 -2.30841,-0.1679 -1.12596,0.2024 -0.89711,0.3851 -1.13109,-2.2211 0.83843,-0.4996 0.82522,-0.7914 1.2213,-1.9659 -0.90369,-1.244 -2.24681,0.5538 -1.00858,0.5406 -0.73426,0.6426 -1.76193,-1.762 0.64258,-0.7342 0.5406,-1.0079 0.55382,-2.2475 -1.24333,-0.9037 -1.96659,1.2213 -0.79148,0.8252 -0.49952,0.8385 -2.22112,-1.1311 0.38511,-0.8971 0.20246,-1.126 -0.16798,-2.3084 -1.46192,-0.4753 -1.49273,1.7692 -0.49733,1.0299 -0.21638,0.9521 -2.46171,-0.3902 0.0887,-0.9719 -0.15549,-1.1333 -0.87291,-2.1434 -1.53746,0 z m 0.76874,11.7327 a 11.266945,11.266945 0 0 1 11.26694,11.267 11.266945,11.266945 0 0 1 -11.26694,11.2669 11.266945,11.266945 0 0 1 -11.26694,-11.2669 11.266945,11.266945 0 0 1 11.26694,-11.267 z"
       id="path73670"
       inkscape:connector-curvature="0" />
    <g
       id="g77148"
       transform="matrix(1.2186098,0,0,1.2186098,-170.48451,-56.970293)"
       style="fill:#c9d4e2;fill-opacity:1">
      <path
         inkscape:connector-curvature="0"
         style="fill:#c9d4e2;fill-opacity:1"
         d="m 288.04562,960.97182 c 0,0 -1.44346,0.83887 1.02725,1.12273 2.9932,0.34125 4.52299,0.29231 7.82152,-0.33158 0,0 0.86722,0.54341 2.07834,1.01408 -7.39443,3.16705 -16.73504,-0.18345 -10.92711,-1.80523"
         id="path4185-7-7-2-3" />
      <path
         inkscape:connector-curvature="0"
         style="fill:#c9d4e2;fill-opacity:1"
         d="m 287.14206,956.83903 c 0,0 -1.61898,1.19761 0.85357,1.45319 3.19743,0.32965 5.72251,0.35661 10.09187,-0.48419 0,0 0.60434,0.61229 1.55463,0.94712 -8.9403,2.61255 -18.89819,0.20603 -12.50007,-1.91612"
         id="path4187-0-5-4-3" />
      <path
         inkscape:connector-curvature="0"
         style="fill:#c9d4e2;fill-opacity:1"
         d="m 294.75934,949.82844 c 1.82199,2.09631 -0.4787,3.98272 -0.4787,3.98272 0,0 4.62632,-2.38668 2.50166,-5.37537 -1.98437,-2.78715 -3.50612,-4.17197 4.732,-8.94666 0,0 -12.93113,3.22749 -6.75496,10.33931"
         id="path4189-8-4-7-6" />
      <path
         inkscape:connector-curvature="0"
         style="fill:#c9d4e2;fill-opacity:1"
         d="m 304.53907,964.02869 c 0,0 1.06818,0.87956 -1.17641,1.56002 -4.26816,1.29213 -17.76455,1.68231 -21.51378,0.0515 -1.34776,-0.58594 1.17966,-1.39907 1.97469,-1.56969 0.82914,-0.17968 1.30296,-0.1462 1.30296,-0.1462 -1.49884,-1.05518 -9.68789,2.07189 -4.15963,2.96743 15.07636,2.44335 27.48277,-1.10025 23.57217,-2.86304"
         id="path4191-3-1-3-8" />
      <path
         inkscape:connector-curvature="0"
         style="fill:#c9d4e2;fill-opacity:1"
         d="m 288.73975,952.55698 c 0,0 -6.86512,1.62951 -2.43111,2.22125 1.87218,0.25049 5.60431,0.19382 9.0807,-0.0973 2.8411,-0.2395 5.6939,-0.74872 5.6939,-0.74872 0,0 -1.0018,0.42874 -1.72658,0.92331 -6.97141,1.83229 -20.43888,0.97989 -16.56177,-0.89432 3.27888,-1.58393 5.94486,-1.40425 5.94486,-1.40425"
         id="path4193-0-4-4-5" />
      <path
         inkscape:connector-curvature="0"
         style="fill:#c9d4e2;fill-opacity:1"
         d="m 301.05494,959.43622 c 7.08676,-3.68014 3.81012,-7.21672 1.52307,-6.74026 -0.56056,0.1166 -0.8105,0.21763 -0.8105,0.21763 0,0 0.20809,-0.32578 0.60556,-0.4668 4.52452,-1.58963 8.00416,4.68841 -1.46056,7.17491 0,10e-5 0.10965,-0.0979 0.14243,-0.18548"
         id="path4195-9-3-4-1" />
      <path
         inkscape:connector-curvature="0"
         style="fill:#c9d4e2;fill-opacity:1"
         d="m 296.7823,931.77927 c 0,0 3.92476,3.9235 -3.72246,9.95675 -6.1323,4.8397 -1.39836,7.59917 -0.003,10.75198 -3.57952,-3.22749 -6.20641,-6.06866 -4.44409,-8.71295 2.58668,-3.88159 9.75264,-5.76353 8.1691,-11.99578"
         id="path4197-7-3-5-7" />
      <path
         inkscape:connector-curvature="0"
         style="fill:#c9d4e2;fill-opacity:1"
         d="m 289.43613,969.40854 c 6.8024,0.43515 17.24827,-0.24144 17.49566,-3.45803 0,0 -0.47555,1.21938 -5.62182,2.18777 -5.80599,1.0919 -12.96687,0.96442 -17.21406,0.26463 1.1e-4,-10e-5 0.86946,0.71912 5.34022,1.00563"
         id="path4199-8-4-8-6" />
    </g>
    <path
       style="opacity:1;fill:#c9d4e2;fill-opacity:1;stroke:none;stroke-width:5;stroke-miterlimit:4;stroke-dasharray:none;stroke-opacity:1"
       d="m 32.350439,1007.3048 c -0.14449,0 0.63154,0.9323 1.72463,2.0717 4.08393,4.2571 6.46163,9.0491 6.87093,13.8474 l 0.17384,2.0357 -0.58147,-1.5345 c -0.88315,-2.3311 -1.70816,-3.8215 -3.25383,-5.8777 -1.38976,-1.8488 -3.44853,-3.6988 -3.76456,-3.3827 -0.0896,0.09 0.24573,0.7596 0.74571,1.489 1.99494,2.9099 3.18258,5.9941 3.60691,9.3683 0.11048,0.8785 0.11039,1.7432 0,1.9217 -0.11292,0.1828 -0.72962,-0.3813 -1.41051,-1.2899 -1.12404,-1.5 -3.14552,-3.303 -3.70343,-3.303 -0.13273,0 0.0553,0.6561 0.41782,1.4578 0.52676,1.1651 0.66277,2.0755 0.67919,4.5326 0.0192,2.877 -0.0443,3.2061 -0.9897,5.1277 -1.15546,2.3482 -2.78501,3.9225 -5.28119,5.1013 -1.3737,0.6486 -2.14855,0.7986 -4.15961,0.8056 -2.2397,0.011 -2.6855,-0.097 -4.75727,-1.1232 -1.25729,-0.6228 -2.82958,-1.6912 -3.49422,-2.374 l -1.2085,-1.2414 1.05265,0.3021 c 0.57911,0.1662 1.76097,0.3021 2.62621,0.3021 1.67818,0 6.40198,-0.7371 7.97213,-1.2438 2.38018,-0.768 2.98055,-2.7024 1.34578,-4.3371 -1.11593,-1.1159 -1.62625,-1.0832 -5.62827,0.3584 -3.41453,1.2302 -4.21079,1.1195 -6.39498,-0.8889 l -1.61254,-1.483 1.08202,-1.0821 c 1.05792,-1.0579 2.73995,-1.7503 4.27591,-1.7606 0.75516,-0.011 0.75114,-0.018 -0.25236,-0.8086 l -1.01968,-0.8033 1.32658,-0.7475 c 2.34515,-1.3211 5.43157,-4.8389 4.79983,-5.4706 -0.0765,-0.077 -0.67718,0.1349 -1.33438,0.4699 -0.65719,0.3351 -1.68359,0.6061 -2.28092,0.6025 -1.23356,-0.011 -3.69444,-1.0219 -3.69444,-1.5226 0,-0.642 0.95696,-2.613 1.60234,-3.3 l 0.65281,-0.6948 -0.69957,0 c -0.38472,0 -1.38639,0.3448 -2.22636,0.7667 -1.25356,0.6297 -1.81188,0.7363 -3.11416,0.5946 -1.5009,-0.1632 -3.6592601,0.118 -4.9185201,0.6409 -0.51923,0.2156 -0.56008,0.097 -0.46038,-1.3434 0.0602,-0.8691 0.0175,-1.5802 -0.0947,-1.5801 -0.414,0 -2.80859,2.9764 -3.9522,4.9113 -1.93151,3.268 -2.80572999,6.3356 -2.98348999,10.4688 -0.18638,4.3335 0.36626,7.2503 2.05912999,10.8622 3.14154,6.7028 8.7787001,11.2165 16.1301001,12.9158 2.73649,0.6325 8.60748,0.3827 11.35605,-0.4832 6.46061,-2.0353 11.45516,-6.3822 14.28558,-12.4326 1.48287,-3.1698 2.13465,-6.1569 2.13465,-9.7868 0,-6.3199 -2.22622,-11.6723 -6.72706,-16.1739 -1.99463,-1.9947 -6.09047,-4.8848 -6.92249,-4.8848 z"
       id="rect77137"
       inkscape:connector-curvature="0"
       sodipodi:nodetypes="sscccscssssssssscscccssssccscccccsssccssscscsssssssss" />
  </g>
</svg>
